<svg width="21" height="20" viewBox="0 0 21 20" fill="none" xmlns="http://www.w3.org/2000/svg">
<g clip-path="url(#clip0_36_8701)">
<path d="M5.94141 15.4015C5.93984 15.3796 5.78203 13.1655 5.78203 11.7171C5.78203 10.3608 5.80234 7.29365 5.80391 6.89834C5.73359 6.7749 5.49141 6.35615 5.28359 6.05615C5.03047 5.6874 4.54141 4.73271 4.52109 4.69365L4.79922 4.55146C4.80391 4.56084 5.29922 5.52803 5.54141 5.87959C5.79297 6.24678 6.08359 6.75928 6.09609 6.78115L6.11641 6.81709V6.85928C6.11641 6.89365 6.09297 10.2749 6.09297 11.7171C6.09297 13.1546 6.25078 15.3562 6.25234 15.378L5.94141 15.4015ZM7.96484 15.5593L7.65234 15.5374C7.65234 15.5343 7.67578 15.1937 7.62891 14.5093L7.59141 13.9546C7.51484 12.8327 7.44141 11.7733 7.42266 10.2124C7.40078 8.40615 7.43984 7.01865 7.44453 6.84678C7.42891 6.77178 7.34922 6.4124 7.11484 5.86865C6.83359 5.2124 6.78516 4.52334 6.78359 4.49365L7.09609 4.47334C7.09609 4.47959 7.14453 5.14053 7.40391 5.74521C7.68203 6.39365 7.75391 6.78896 7.75703 6.80615L7.76016 6.82178V6.8374C7.76016 6.85146 7.71484 8.29365 7.73672 10.2062C7.75547 11.7593 7.82734 12.814 7.90391 13.9312L7.94141 14.4858C7.98828 15.1983 7.96484 15.5452 7.96484 15.5593ZM9.29453 15.3233C9.29297 15.2671 9.20234 9.61084 9.18047 8.68584C9.16016 7.83271 9.17734 6.9124 9.18047 6.76084C9.14922 6.63584 8.99609 6.00928 8.95391 5.50146C8.92266 5.13271 8.95234 4.48271 8.95391 4.45459L9.26641 4.46865C9.26641 4.4749 9.23672 5.12646 9.26641 5.4749C9.31016 6.00303 9.48828 6.69678 9.48984 6.70303L9.49453 6.72334V6.74521C9.49453 6.75459 9.47266 7.75615 9.49453 8.67646C9.51641 9.60146 9.60703 15.2593 9.60859 15.3155L9.29453 15.3233ZM11.1883 15.3233L11.0977 6.89678L11.0992 6.8874C11.1023 6.86084 11.1695 6.2374 11.2602 5.75771C11.318 5.45771 11.3492 5.03115 11.3492 4.55459H11.6617C11.6617 5.05615 11.6289 5.49209 11.568 5.81553C11.4852 6.25146 11.4195 6.83272 11.4117 6.9124L11.5023 15.3202L11.1883 15.3233ZM13.2805 15.4124H12.968C12.968 15.3968 12.968 13.8765 12.9445 11.1483C12.9227 8.41865 12.9211 6.94209 12.9211 6.92647V6.89834L12.9305 6.87178C12.932 6.86709 13.0883 6.44053 13.1992 5.99834C13.3133 5.54209 13.5414 4.58584 13.5414 4.58584L13.8461 4.65771C13.8461 4.65771 13.618 5.61709 13.5039 6.07334C13.4039 6.47334 13.2711 6.8499 13.2352 6.95303C13.2352 7.16709 13.2367 8.62021 13.2586 11.1452C13.2805 13.8749 13.2805 15.3968 13.2805 15.4124ZM14.6555 15.2077L14.5867 7.00303L14.6039 6.96865C14.6039 6.96865 15.0836 6.03271 15.3352 5.55303C15.5867 5.07334 15.9648 4.49209 15.982 4.46865L16.243 4.63896C16.2398 4.64521 15.857 5.23115 15.6117 5.69834C15.3898 6.12334 14.9883 6.90459 14.8992 7.07803L14.968 15.2062L14.6555 15.2077ZM3.09141 16.253L2.80859 16.1218C2.88672 15.953 3.09141 15.4546 3.09141 15.1843C3.09141 15.0608 3.08828 14.5765 3.08516 13.9358C3.07891 12.7015 3.06797 10.8358 3.06797 9.91553C3.06797 8.53896 3.11328 5.90146 3.11328 5.8749L3.42578 5.87959C3.42578 5.90615 3.38047 8.54053 3.38047 9.91397C3.38047 10.8343 3.38984 12.6983 3.39766 13.9327C3.40078 14.5749 3.40391 15.0593 3.40391 15.1827C3.40234 15.5796 3.10391 16.2265 3.09141 16.253ZM17.2336 15.8015C17.2336 15.7733 17.2117 12.9999 17.2336 11.578C17.2383 11.2437 17.2477 10.778 17.2586 10.2546C17.2898 8.62646 17.3367 6.16553 17.3039 5.8249L17.6148 5.79365C17.6508 6.15303 17.607 8.43115 17.5711 10.2608C17.5617 10.7843 17.5523 11.2499 17.5461 11.5827C17.5242 13.0015 17.5461 15.7718 17.5461 15.7999L17.2336 15.8015Z" fill="#B7CBD3"/>
<path d="M9.71602 8.65928C5.82383 8.65928 4.33633 8.2124 4.27227 8.19365L4.23945 8.17959C4.23477 8.17646 3.74102 7.88584 3.18945 7.66553C2.6082 7.43272 1.92852 6.9374 1.90039 6.91709L2.08477 6.66553C2.09102 6.67021 2.75977 7.15928 3.30508 7.37646C3.82695 7.58584 4.28633 7.84678 4.38164 7.90146C4.55977 7.95146 6.2457 8.38896 10.2723 8.34678C14.2426 8.30459 16.1973 7.97178 16.4629 7.92178L18.2832 6.64053L18.4629 6.89678L16.5879 8.21553L16.5551 8.22178C16.5363 8.22646 14.5738 8.6124 10.2754 8.65771C10.0816 8.65771 9.8957 8.65928 9.71602 8.65928ZM10.4316 10.003C5.95039 10.003 4.46133 9.54209 4.22383 9.45615C4.08477 9.46084 3.53008 9.47803 3.2457 9.47803C2.92852 9.47803 2.06914 9.45615 2.0332 9.45459L2.04102 9.14209C2.05039 9.14209 2.93164 9.16553 3.2457 9.16553C3.5582 9.16553 4.23789 9.14365 4.24414 9.14209L4.27852 9.14053L4.30977 9.15303C4.32227 9.15772 5.68633 9.68896 10.4316 9.68896C15.191 9.68896 16.4473 9.37803 16.4598 9.3749L18.5801 8.80459L18.6613 9.10615L16.5395 9.67647C16.4895 9.69053 15.2551 10.003 10.4316 10.003ZM9.60195 11.5108C5.6457 11.5108 4.56914 11.189 4.29883 11.0624C4.1582 11.0983 3.77695 11.1968 3.26133 11.3218C2.59258 11.4827 1.97852 11.5077 1.95352 11.5093L1.94258 11.1968C1.94883 11.1968 2.55195 11.1718 3.18945 11.0187C3.84102 10.8608 4.27695 10.7468 4.28164 10.7452L4.3582 10.7249L4.41914 10.7749C4.44102 10.789 5.1957 11.239 10.2723 11.1968C15.4363 11.153 16.3332 10.7921 16.3691 10.7765L16.4113 10.7577L16.4598 10.764C16.4629 10.764 16.8426 10.8296 17.391 10.8296C17.9566 10.8296 18.7566 10.8515 18.7645 10.853L18.7551 11.1655C18.7473 11.1655 17.952 11.1421 17.391 11.1421C16.916 11.1421 16.566 11.0952 16.4488 11.078C16.2035 11.1593 14.9723 11.4671 10.2754 11.5077C10.041 11.5093 9.81602 11.5108 9.60195 11.5108ZM2.1707 13.1952L2.13008 12.8858C2.13477 12.8858 2.65352 12.8171 3.18477 12.6843C3.71602 12.5515 4.30195 12.3265 4.30664 12.3249L4.35039 12.3077L4.3957 12.3187C4.41289 12.3218 6.16914 12.7015 10.3582 12.6108C14.5645 12.5202 16.4098 12.228 16.427 12.2249L16.4707 12.2187L16.5113 12.2358C16.5145 12.2374 16.7863 12.3483 17.4457 12.5015C18.1238 12.6593 18.7441 12.8202 18.7504 12.8218L18.6723 13.1249C18.666 13.1233 18.0504 12.964 17.3754 12.8062C16.8285 12.678 16.5379 12.5796 16.4348 12.5405C16.1348 12.5843 14.2426 12.8405 10.3645 12.9233C6.45664 13.0077 4.68164 12.6937 4.37383 12.6327C4.22539 12.689 3.73008 12.8687 3.2582 12.9874C2.71133 13.1233 2.19258 13.1921 2.1707 13.1952ZM18.6035 15.1218C18.6035 15.1218 17.7816 14.7562 17.2785 14.528C17.0185 14.4098 16.7726 14.2625 16.5457 14.089L16.4457 14.1749L16.3926 14.178C16.3707 14.1796 14.1785 14.2937 10.4098 14.3608C6.88945 14.4233 4.56445 14.2515 4.24883 14.2265L2.25195 15.0124L2.13789 14.7218L4.20195 13.9093L4.23945 13.9108C4.26289 13.9124 6.64883 14.1155 10.4051 14.0468C13.8457 13.9858 15.9676 13.8843 16.3238 13.8671L16.5488 13.6749L16.6504 13.7687C16.6535 13.7718 16.9379 14.0296 17.4082 14.2437C17.9098 14.4718 18.7301 14.8358 18.7301 14.8358L18.6035 15.1218ZM11.302 5.55771C10.9738 5.55771 10.6301 5.55615 10.2707 5.55303C4.6707 5.50771 2.9957 5.34834 2.98008 5.34678L3.01133 5.03584C3.02695 5.0374 4.6957 5.19522 10.2738 5.24053C15.8379 5.28584 17.7082 4.9499 17.727 4.94678L17.7848 5.25459C17.7129 5.26865 16.1051 5.55771 11.302 5.55771ZM11.3957 6.30928C11.0488 6.30928 10.6832 6.30928 10.2941 6.30771C4.5707 6.28428 3.61445 6.08272 3.57695 6.0749L3.64414 5.77021C3.6832 5.77803 4.65352 5.97178 10.2957 5.99521C15.9582 6.01709 17.0363 5.8624 17.0457 5.86084L17.0941 6.17022C17.0551 6.17334 16.1488 6.30928 11.3957 6.30928Z" fill="#B7CBD3"/>
<path d="M16.6652 15.0718L16.723 7.11245L18.5324 5.14683L18.123 4.46558L16.0996 6.70308L4.46367 6.58589L2.20742 4.13745L1.62305 4.68276L4.04492 7.20151L4.07461 15.2875L2.26523 16.0078L2.20742 16.864L4.5043 15.9109L16.5105 15.7937L18.4949 16.8062L18.4762 16.0468L16.6652 15.0718ZM16.0621 14.975C15.9652 15.0328 4.77617 15.0921 4.71836 15.0531C4.66055 15.014 4.55273 7.4937 4.6793 7.36714C4.77617 7.27026 15.8871 7.32808 16.1012 7.42495C16.2074 7.47339 16.1809 9.14058 16.159 10.9859C16.134 12.8781 16.1105 14.9453 16.0621 14.975Z" fill="#9A9A9A"/>
<path d="M1.26133 16.5188L1.73164 17.0267C1.73164 17.0267 1.87227 17.0251 2.06133 16.9876C2.25508 16.9501 2.38633 16.8532 2.4207 16.7157C2.46914 16.522 2.36914 5.4626 2.36914 5.4626C2.3832 5.21104 2.35508 4.94385 2.70508 4.92979C3.05508 4.91572 17.6988 4.91572 17.866 4.91572C18.0332 4.91572 18.2863 4.97197 18.2863 5.3501C18.2863 5.72822 18.216 16.5735 18.2301 16.672C18.2441 16.7704 18.3379 16.9063 18.6113 16.9642C18.9004 17.0251 19.2676 16.9813 19.2676 16.9813L19.4629 15.2563L19.2457 4.07666L1.7707 3.9126L1.1582 4.87979L1.26133 16.5188Z" fill="#DF0A2B"/>
<path d="M1.21215 3.85785C0.862153 4.32504 0.946528 4.81723 0.946528 6.20473C0.946528 7.59223 0.926215 16.2438 0.946528 16.4891C0.96684 16.7344 0.99809 16.8985 1.29809 16.9844C1.51528 17.0454 1.72778 17.0266 1.72778 17.0266C1.72778 17.0266 1.76215 5.02192 1.76215 4.83754C1.76215 4.65317 1.72153 4.32817 2.0684 4.28598C2.41528 4.24379 18.1684 4.3266 18.3512 4.30629C18.534 4.28598 18.8403 4.46879 18.8403 4.69379C18.8403 4.91879 18.959 16.9969 18.959 16.9969C18.959 16.9969 19.5168 17.0375 19.6356 16.7938C19.7559 16.5485 19.7168 4.7141 19.6762 4.38754C19.6356 4.06098 19.37 3.67348 18.8403 3.5516C18.3106 3.42973 2.33403 3.42817 2.04965 3.44848C1.76528 3.46879 1.39653 3.61254 1.21215 3.85785Z" fill="#FF180A"/>
</g>
<defs>
<clipPath id="clip0_36_8701">
<rect width="20" height="20" fill="white" transform="translate(0.333984)"/>
</clipPath>
</defs>
</svg>
