<svg width="23" height="26" viewBox="0 0 23 26" fill="none" xmlns="http://www.w3.org/2000/svg">
<mask id="mask0_36_10695" style="mask-type:luminance" maskUnits="userSpaceOnUse" x="0" y="0" width="23" height="21">
<path fill-rule="evenodd" clip-rule="evenodd" d="M0.5 0.166504H22.0797V20.4058H0.5V0.166504Z" fill="white"/>
</mask>
<g mask="url(#mask0_36_10695)">
<path fill-rule="evenodd" clip-rule="evenodd" d="M11.2882 1.9165C7.21068 1.9165 4.36868 5.11084 4.36868 7.97734C4.36868 10.4028 3.69552 11.524 3.10052 12.5133C2.62335 13.3078 2.24652 13.9355 2.24652 15.2993C2.44135 17.4997 3.89385 18.6558 11.2882 18.6558C18.6417 18.6558 20.1397 17.4483 20.3334 15.2235C20.3299 13.9355 19.953 13.3078 19.4759 12.5133C18.8809 11.524 18.2077 10.4028 18.2077 7.97734C18.2077 5.11084 15.3657 1.9165 11.2882 1.9165M11.2882 20.4058C5.83285 20.4058 0.902516 20.0208 0.500016 15.374C0.496516 13.4513 1.08335 12.4737 1.60135 11.6127C2.12518 10.74 2.61868 9.9175 2.61868 7.97734C2.61868 4.2055 6.10235 0.166504 11.2882 0.166504C16.474 0.166504 19.9577 4.2055 19.9577 7.97734C19.9577 9.9175 20.4512 10.74 20.975 11.6127C21.493 12.4737 22.0799 13.4513 22.0799 15.2993C21.6727 20.0208 16.7435 20.4058 11.2882 20.4058" fill="white"/>
</g>
<path fill-rule="evenodd" clip-rule="evenodd" d="M11.2312 25.2497H11.2289C9.92103 25.2485 8.68319 24.6722 7.74403 23.6257C7.42086 23.2675 7.45003 22.7134 7.80936 22.3914C8.16869 22.067 8.72169 22.0962 9.04486 22.4567C9.64919 23.1299 10.425 23.4997 11.23 23.4997H11.2312C12.0397 23.4997 12.819 23.1299 13.4245 22.4555C13.7489 22.0974 14.3019 22.0682 14.66 22.3914C15.0194 22.7145 15.0485 23.2687 14.7254 23.6269C13.7827 24.6734 12.5425 25.2497 11.2312 25.2497" fill="white"/>
</svg>
