<svg width="20" height="24" viewBox="0 0 20 24" fill="none" xmlns="http://www.w3.org/2000/svg">
<path fill-rule="evenodd" clip-rule="evenodd" d="M17.8256 8.26255C17.8256 9.7278 18.2128 10.5914 19.0651 11.5867C19.7109 12.3199 19.9173 13.2611 19.9173 14.2822C19.9173 15.3021 19.5822 16.2703 18.9109 17.0564C18.032 17.9988 16.7925 18.6004 15.5274 18.705C13.6943 18.8613 11.8599 18.9929 10.0012 18.9929C8.14139 18.9929 6.30821 18.9141 4.47503 18.705C3.20885 18.6004 1.96934 17.9988 1.09159 17.0564C0.420241 16.2703 0.0839844 15.3021 0.0839844 14.2822C0.0839844 13.2611 0.291536 12.3199 0.936221 11.5867C1.81513 10.5914 2.17689 9.7278 2.17689 8.26255V7.76551C2.17689 5.80323 2.6662 4.5201 3.67381 3.264C5.17189 1.43214 7.57323 0.333496 9.94905 0.333496H10.0534C12.4803 0.333496 14.9593 1.48502 16.4318 3.3956C17.3873 4.62585 17.8256 5.85493 17.8256 7.76551V8.26255ZM6.58652 21.4045C6.58652 20.817 7.12569 20.5479 7.62427 20.4327C8.2075 20.3094 11.7614 20.3094 12.3446 20.4327C12.8432 20.5479 13.3824 20.817 13.3824 21.4045C13.3534 21.9638 13.0252 22.4596 12.5719 22.7746C11.984 23.2328 11.2941 23.523 10.5729 23.6276C10.174 23.6793 9.78211 23.6805 9.39716 23.6276C8.67478 23.523 7.98488 23.2328 7.39817 22.7734C6.94364 22.4596 6.6155 21.9638 6.58652 21.4045Z" fill="url(#paint0_linear_36_10965)"/>
<defs>
<linearGradient id="paint0_linear_36_10965" x1="19.9173" y1="23.6668" x2="-4.20159" y2="17.7227" gradientUnits="userSpaceOnUse">
<stop stop-color="#FB9400"/>
<stop offset="1" stop-color="#FFAB38"/>
</linearGradient>
</defs>
</svg>
