<svg width="17" height="19" viewBox="0 0 17 19" fill="none" xmlns="http://www.w3.org/2000/svg">
<path fill-rule="evenodd" clip-rule="evenodd" d="M16.2205 8.25342H1.36719C1.02219 8.25342 0.742188 7.97342 0.742188 7.62842C0.742188 7.28342 1.02219 7.00342 1.36719 7.00342H16.2205C16.5655 7.00342 16.8455 7.28342 16.8455 7.62842C16.8455 7.97342 16.5655 8.25342 16.2205 8.25342Z" fill="white"/>
<path fill-rule="evenodd" clip-rule="evenodd" d="M12.4994 11.5078C12.1544 11.5078 11.8711 11.2278 11.8711 10.8828C11.8711 10.5378 12.1469 10.2578 12.4919 10.2578H12.4994C12.8444 10.2578 13.1244 10.5378 13.1244 10.8828C13.1244 11.2278 12.8444 11.5078 12.4994 11.5078Z" fill="white"/>
<path fill-rule="evenodd" clip-rule="evenodd" d="M8.80216 11.5078C8.45716 11.5078 8.17383 11.2278 8.17383 10.8828C8.17383 10.5378 8.44966 10.2578 8.79466 10.2578H8.80216C9.14716 10.2578 9.42716 10.5378 9.42716 10.8828C9.42716 11.2278 9.14716 11.5078 8.80216 11.5078Z" fill="white"/>
<path fill-rule="evenodd" clip-rule="evenodd" d="M5.09596 11.5078C4.75096 11.5078 4.4668 11.2278 4.4668 10.8828C4.4668 10.5378 4.74346 10.2578 5.08846 10.2578H5.09596C5.44096 10.2578 5.72096 10.5378 5.72096 10.8828C5.72096 11.2278 5.44096 11.5078 5.09596 11.5078Z" fill="white"/>
<path fill-rule="evenodd" clip-rule="evenodd" d="M12.4994 14.7468C12.1544 14.7468 11.8711 14.4668 11.8711 14.1218C11.8711 13.7768 12.1469 13.4968 12.4919 13.4968H12.4994C12.8444 13.4968 13.1244 13.7768 13.1244 14.1218C13.1244 14.4668 12.8444 14.7468 12.4994 14.7468Z" fill="white"/>
<path fill-rule="evenodd" clip-rule="evenodd" d="M8.80216 14.7468C8.45716 14.7468 8.17383 14.4668 8.17383 14.1218C8.17383 13.7768 8.44966 13.4968 8.79466 13.4968H8.80216C9.14716 13.4968 9.42716 13.7768 9.42716 14.1218C9.42716 14.4668 9.14716 14.7468 8.80216 14.7468Z" fill="white"/>
<path fill-rule="evenodd" clip-rule="evenodd" d="M5.09596 14.7468C4.75096 14.7468 4.4668 14.4668 4.4668 14.1218C4.4668 13.7768 4.74346 13.4968 5.08846 13.4968H5.09596C5.44096 13.4968 5.72096 13.7768 5.72096 14.1218C5.72096 14.4668 5.44096 14.7468 5.09596 14.7468Z" fill="white"/>
<path fill-rule="evenodd" clip-rule="evenodd" d="M12.1602 4.82575C11.8152 4.82575 11.5352 4.54575 11.5352 4.20075V1.45825C11.5352 1.11325 11.8152 0.833252 12.1602 0.833252C12.5052 0.833252 12.7852 1.11325 12.7852 1.45825V4.20075C12.7852 4.54575 12.5052 4.82575 12.1602 4.82575Z" fill="white"/>
<path fill-rule="evenodd" clip-rule="evenodd" d="M5.42969 4.82575C5.08469 4.82575 4.80469 4.54575 4.80469 4.20075V1.45825C4.80469 1.11325 5.08469 0.833252 5.42969 0.833252C5.77469 0.833252 6.05469 1.11325 6.05469 1.45825V4.20075C6.05469 4.54575 5.77469 4.82575 5.42969 4.82575Z" fill="white"/>
<mask id="mask0_36_4490" style="mask-type:luminance" maskUnits="userSpaceOnUse" x="0" y="2" width="17" height="17">
<path fill-rule="evenodd" clip-rule="evenodd" d="M0.666016 2.14917H16.916V18.7499H0.666016V2.14917Z" fill="white"/>
</mask>
<g mask="url(#mask0_36_4490)">
<path fill-rule="evenodd" clip-rule="evenodd" d="M5.26685 3.39917C3.10602 3.39917 1.91602 4.55167 1.91602 6.64417V14.185C1.91602 16.3233 3.10602 17.5 5.26685 17.5H12.3152C14.476 17.5 15.666 16.345 15.666 14.2483V6.64417C15.6693 5.615 15.3927 4.815 14.8435 4.265C14.2785 3.69834 13.4077 3.39917 12.3227 3.39917H5.26685ZM12.3152 18.75H5.26685C2.42935 18.75 0.666016 17.0008 0.666016 14.185V6.64417C0.666016 3.87084 2.42935 2.14917 5.26685 2.14917H12.3227C13.7468 2.14917 14.9244 2.57584 15.7285 3.38167C16.5094 4.16584 16.9202 5.29334 16.916 6.64584V14.2483C16.916 17.025 15.1527 18.75 12.3152 18.75Z" fill="white"/>
</g>
</svg>
