<svg width="16" height="18" viewBox="0 0 16 18" fill="none" xmlns="http://www.w3.org/2000/svg">
<path d="M14.6667 1.5H3V8.16667H14.6667L13 4.83333L14.6667 1.5Z" fill="#F75555"/>
<path fill-rule="evenodd" clip-rule="evenodd" d="M2.33203 1.49992C2.33203 1.13173 2.63051 0.833252 2.9987 0.833252H14.6654C14.8964 0.833252 15.111 0.952887 15.2325 1.14943C15.3539 1.34598 15.365 1.5914 15.2616 1.79806L13.7441 4.83325L15.2616 7.86844C15.365 8.0751 15.3539 8.32053 15.2325 8.51707C15.111 8.71362 14.8964 8.83325 14.6654 8.83325H2.9987C2.63051 8.83325 2.33203 8.53478 2.33203 8.16659V1.49992ZM3.66536 2.16659V7.49992H13.5867L12.4024 5.13139C12.3086 4.94371 12.3086 4.72279 12.4024 4.53511L13.5867 2.16659H3.66536Z" fill="#F75555"/>
<path fill-rule="evenodd" clip-rule="evenodd" d="M0.666016 17.3334C0.666016 16.9652 0.964492 16.6667 1.33268 16.6667H4.66602C5.0342 16.6667 5.33268 16.9652 5.33268 17.3334C5.33268 17.7016 5.0342 18.0001 4.66602 18.0001H1.33268C0.964492 18.0001 0.666016 17.7016 0.666016 17.3334Z" fill="white"/>
<path fill-rule="evenodd" clip-rule="evenodd" d="M2.9987 0C3.36689 0 3.66536 0.298477 3.66536 0.666667V17.3333C3.66536 17.7015 3.36689 18 2.9987 18C2.63051 18 2.33203 17.7015 2.33203 17.3333V0.666667C2.33203 0.298477 2.63051 0 2.9987 0Z" fill="white"/>
</svg>
