<svg width="15" height="17" viewBox="0 0 15 17" fill="none" xmlns="http://www.w3.org/2000/svg">
<path fill-rule="evenodd" clip-rule="evenodd" d="M7.21029 6.0835C6.40612 6.0835 5.75195 6.73766 5.75195 7.54266C5.75195 8.34683 6.40612 9.00016 7.21029 9.00016C8.01445 9.00016 8.66862 8.34683 8.66862 7.54266C8.66862 6.73766 8.01445 6.0835 7.21029 6.0835ZM7.21029 10.2502C5.71695 10.2502 4.50195 9.036 4.50195 7.54266C4.50195 6.0485 5.71695 4.8335 7.21029 4.8335C8.70362 4.8335 9.91862 6.0485 9.91862 7.54266C9.91862 9.036 8.70362 10.2502 7.21029 10.2502Z" fill="white"/>
<mask id="mask0_36_4523" style="mask-type:luminance" maskUnits="userSpaceOnUse" x="0" y="0" width="15" height="17">
<path fill-rule="evenodd" clip-rule="evenodd" d="M0.333984 0.666748H14.0836V16.9167H0.333984V0.666748Z" fill="white"/>
</mask>
<g mask="url(#mask0_36_4523)">
<path fill-rule="evenodd" clip-rule="evenodd" d="M7.20898 1.91675C4.10732 1.91675 1.58398 4.46425 1.58398 7.59425C1.58398 11.5767 6.27065 15.4567 7.20898 15.6634C8.14732 15.4559 12.834 11.5759 12.834 7.59425C12.834 4.46425 10.3107 1.91675 7.20898 1.91675ZM7.20898 16.9167C5.71398 16.9167 0.333984 12.2901 0.333984 7.59425C0.333984 3.77425 3.41815 0.666748 7.20898 0.666748C10.9998 0.666748 14.084 3.77425 14.084 7.59425C14.084 12.2901 8.70398 16.9167 7.20898 16.9167Z" fill="white"/>
</g>
</svg>
