<svg width="28" height="28" viewBox="0 0 28 28" fill="none" xmlns="http://www.w3.org/2000/svg">
<path fill-rule="evenodd" clip-rule="evenodd" d="M14.0007 4.08301C8.53248 4.08301 4.08398 8.53151 4.08398 13.9997C4.08398 19.4678 8.53248 23.9163 14.0007 23.9163C19.4688 23.9163 23.9173 19.4678 23.9173 13.9997C23.9173 8.53151 19.4688 4.08301 14.0007 4.08301M14.0007 25.6663C7.56765 25.6663 2.33398 20.4327 2.33398 13.9997C2.33398 7.56667 7.56765 2.33301 14.0007 2.33301C20.4337 2.33301 25.6673 7.56667 25.6673 13.9997C25.6673 20.4327 20.4337 25.6663 14.0007 25.6663" fill="white"/>
<path fill-rule="evenodd" clip-rule="evenodd" d="M18.6061 15.182C17.9609 15.182 17.4336 14.6605 17.4336 14.0153C17.4336 13.3701 17.9504 12.8486 18.5944 12.8486H18.6061C19.2513 12.8486 19.7728 13.3701 19.7728 14.0153C19.7728 14.6605 19.2513 15.182 18.6061 15.182" fill="white"/>
<path fill-rule="evenodd" clip-rule="evenodd" d="M13.9291 15.182C13.284 15.182 12.7578 14.6605 12.7578 14.0153C12.7578 13.3701 13.2735 12.8486 13.9186 12.8486H13.9291C14.5743 12.8486 15.0958 13.3701 15.0958 14.0153C15.0958 14.6605 14.5743 15.182 13.9291 15.182" fill="white"/>
<path fill-rule="evenodd" clip-rule="evenodd" d="M9.25258 15.182C8.60741 15.182 8.08008 14.6605 8.08008 14.0153C8.08008 13.3701 8.59691 12.8486 9.24208 12.8486H9.25258C9.89774 12.8486 10.4192 13.3701 10.4192 14.0153C10.4192 14.6605 9.89774 15.182 9.25258 15.182" fill="white"/>
</svg>
