<svg width="20" height="20" viewBox="0 0 20 20" fill="none" xmlns="http://www.w3.org/2000/svg">
<path fill-rule="evenodd" clip-rule="evenodd" d="M13.1878 2.30054C14.1992 2.72081 15.117 3.33752 15.8884 4.11497C19.1384 7.36497 19.1384 12.6525 15.8892 15.9008C15.1178 16.6781 14.1999 17.2947 13.1886 17.7148C12.1773 18.1349 11.0926 18.3502 9.99755 18.3483C8.90199 18.3503 7.81693 18.1349 6.80519 17.7146C5.79344 17.2944 4.87512 16.6776 4.10338 15.9C0.854212 12.6508 0.854212 7.3633 4.10338 4.11497C4.8751 3.33758 5.79331 2.72092 6.80488 2.30067C7.81646 1.88042 8.90132 1.66492 9.99671 1.66664C11.0919 1.66482 12.1765 1.88028 13.1878 2.30054ZM9.84754 3.3408H10.1467C10.1229 3.34041 10.0999 3.33875 10.0769 3.33708C10.0507 3.33519 10.0246 3.3333 9.99755 3.3333C9.97048 3.3333 9.94413 3.33519 9.91772 3.33709C9.89454 3.33875 9.87131 3.34041 9.84754 3.3408ZM13.3292 14.1741H15.1984C15.8821 13.3217 16.3445 12.3135 16.5442 11.2391L14.9959 9.17414L16.0092 7.14414C15.6858 6.45728 15.2466 5.8312 14.7109 5.2933C13.9598 4.54073 13.0398 3.97846 12.0275 3.6533L9.99588 5.00747L7.96505 3.65247C6.95245 3.9774 6.03237 4.54002 5.28171 5.2933C4.74538 5.83184 4.30588 6.4588 3.98255 7.14664L4.99588 9.17414L3.44755 11.2391C3.64822 12.3169 4.11291 13.3282 4.80005 14.1825H6.66255L7.70838 16.27C8.44097 16.5408 9.21565 16.6802 9.99671 16.6816C10.7763 16.6801 11.5496 16.541 12.2809 16.2708L13.3292 14.1741ZM8.32919 12.5074L7.07919 9.17411L9.99586 7.09078L12.9125 9.17411L11.6625 12.5074H8.32919Z" fill="white"/>
</svg>
