<svg width="24" height="24" viewBox="0 0 24 24" fill="none" xmlns="http://www.w3.org/2000/svg">
<path d="M18.9041 14.707C18.6019 14.9998 18.4631 15.4233 18.5319 15.8387L19.5691 21.5787C19.6566 22.0652 19.4512 22.5575 19.0441 22.8387C18.6451 23.1303 18.1142 23.1653 17.6791 22.932L12.5119 20.237C12.3322 20.1413 12.1327 20.09 11.9286 20.0842H11.6124C11.5027 20.1005 11.3954 20.1355 11.2974 20.1892L6.12905 22.897C5.87355 23.0253 5.58422 23.0708 5.30072 23.0253C4.61005 22.8947 4.14922 22.2367 4.26239 21.5425L5.30072 15.8025C5.36955 15.3837 5.23072 14.9578 4.92855 14.6603L0.71572 10.577C0.363386 10.2352 0.240886 9.72183 0.401886 9.25866C0.55822 8.79666 0.95722 8.45949 1.43905 8.38366L7.23739 7.54249C7.67839 7.49699 8.06572 7.22866 8.26405 6.83199L10.8191 1.59366C10.8797 1.47699 10.9579 1.36966 11.0524 1.27866L11.1574 1.19699C11.2122 1.13633 11.2752 1.08616 11.3452 1.04533L11.4724 0.998659L11.6707 0.916992H12.1619C12.6006 0.962492 12.9867 1.22499 13.1886 1.61699L15.7774 6.83199C15.9641 7.21349 16.3269 7.47833 16.7457 7.54249L22.5441 8.38366C23.0341 8.45366 23.4436 8.79199 23.6057 9.25866C23.7586 9.72649 23.6267 10.2398 23.2674 10.577L18.9041 14.707Z" fill="url(#paint0_linear_36_2022)"/>
<defs>
<linearGradient id="paint0_linear_36_2022" x1="23.6684" y1="23.0851" x2="-3.86879" y2="14.6802" gradientUnits="userSpaceOnUse">
<stop stop-color="#FB9400"/>
<stop offset="1" stop-color="#FFAB38"/>
</linearGradient>
</defs>
</svg>
