<svg width="24" height="23" viewBox="0 0 24 23" fill="none" xmlns="http://www.w3.org/2000/svg">
<path fill-rule="evenodd" clip-rule="evenodd" d="M11.709 2.24987C11.6028 2.24987 11.3415 2.27903 11.2026 2.5567L9.07231 6.8162C8.73514 7.48937 8.08531 7.9572 7.33397 8.06453L2.56464 8.7517C2.24964 8.7972 2.14231 9.03053 2.10964 9.12853C2.08047 9.22303 2.03381 9.46337 2.25081 9.67103L5.69947 12.9844C6.24897 13.5129 6.49864 14.2747 6.36797 15.0202L5.55597 19.6985C5.50581 19.9914 5.68897 20.1617 5.77064 20.22C5.85697 20.2854 6.08797 20.4149 6.37381 20.2655L10.638 18.0547C11.31 17.7082 12.1103 17.7082 12.78 18.0547L17.043 20.2644C17.33 20.4125 17.561 20.283 17.6485 20.22C17.7301 20.1617 17.9133 19.9914 17.8631 19.6985L17.0488 15.0202C16.9181 14.2747 17.1678 13.5129 17.7173 12.9844L21.166 9.67103C21.3841 9.46337 21.3375 9.22187 21.3071 9.12853C21.2756 9.03053 21.1683 8.7972 20.8533 8.7517L16.084 8.06453C15.3338 7.9572 14.684 7.48937 14.3468 6.81503L12.2141 2.5567C12.0765 2.27903 11.8151 2.24987 11.709 2.24987ZM6.10539 22.0833C5.62355 22.0833 5.14522 21.9317 4.73572 21.633C4.02872 21.115 3.68222 20.2598 3.83272 19.3988L4.64472 14.7205C4.67505 14.5467 4.61555 14.3705 4.48722 14.2468L1.03855 10.9335C0.403886 10.3257 0.176386 9.42733 0.44472 8.59317C0.715386 7.74967 1.43172 7.1465 2.31489 7.0205L7.08422 6.33333C7.26855 6.30767 7.42722 6.1945 7.50655 6.0335L9.63805 1.77283C10.0312 0.987667 10.8246 0.5 11.7089 0.5C12.5932 0.5 13.3866 0.987667 13.7797 1.77283L15.9124 6.03233C15.9929 6.1945 16.1504 6.30767 16.3336 6.33333L21.1029 7.0205C21.9861 7.1465 22.7024 7.74967 22.9731 8.59317C23.2414 9.42733 23.0127 10.3257 22.3781 10.9335L18.9294 14.2468C18.8011 14.3705 18.7427 14.5467 18.7731 14.7193L19.5862 19.3988C19.7356 20.261 19.3891 21.1162 18.6809 21.633C17.9634 22.1592 17.0289 22.2303 16.2367 21.8173L11.9749 19.6088C11.8081 19.5225 11.6086 19.5225 11.4417 19.6088L7.17989 21.8185C6.83922 21.9958 6.47172 22.0833 6.10539 22.0833Z" fill="white"/>
</svg>
