<svg width="14" height="14" viewBox="0 0 14 14" fill="none" xmlns="http://www.w3.org/2000/svg">
<path fill-rule="evenodd" clip-rule="evenodd" d="M13.3333 3.94667V9.39333C13.3333 11.7467 11.8193 13.3333 9.56 13.3333H3.78C1.52 13.3333 0 11.7467 0 9.39333V3.94667C0 1.58667 1.52 0 3.78 0H9.56C11.8193 0 13.3333 1.58667 13.3333 3.94667ZM6.16667 5.15333V9.38667C6.16667 9.66667 6.39333 9.88667 6.66667 9.88667C6.94667 9.88667 7.16667 9.66667 7.16667 9.38667V5.15333L8.81333 6.80667C8.90667 6.9 9.04 6.95333 9.16667 6.95333C9.29267 6.95333 9.42 6.9 9.52 6.80667C9.71333 6.61333 9.71333 6.29333 9.52 6.1L7.02 3.58667C6.83333 3.4 6.5 3.4 6.31333 3.58667L3.81333 6.1C3.62 6.29333 3.62 6.61333 3.81333 6.80667C4.01333 7 4.32667 7 4.52667 6.80667L6.16667 5.15333Z" fill="#12D18E"/>
</svg>
