<svg width="16" height="16" viewBox="0 0 16 16" fill="none" xmlns="http://www.w3.org/2000/svg">
<path fill-rule="evenodd" clip-rule="evenodd" d="M1.33398 10.7202V5.2735C1.33398 2.92016 2.84798 1.3335 5.10732 1.3335H10.8873C13.1473 1.3335 14.6673 2.92016 14.6673 5.2735V10.7202C14.6673 13.0802 13.1473 14.6668 10.8873 14.6668H5.10732C2.84798 14.6668 1.33398 13.0802 1.33398 10.7202ZM8.50065 9.5135V5.28016C8.50065 5.00016 8.27398 4.78016 8.00065 4.78016C7.72065 4.78016 7.50065 5.00016 7.50065 5.28016V9.5135L5.85398 7.86016C5.76065 7.76683 5.62732 7.7135 5.50065 7.7135C5.37465 7.7135 5.24732 7.76683 5.14732 7.86016C4.95398 8.0535 4.95398 8.3735 5.14732 8.56683L7.64732 11.0802C7.83398 11.2668 8.16732 11.2668 8.35398 11.0802L10.854 8.56683C11.0473 8.3735 11.0473 8.0535 10.854 7.86016C10.654 7.66683 10.3407 7.66683 10.1407 7.86016L8.50065 9.5135Z" fill="#F75555"/>
</svg>
