<svg width="784" height="1232" viewBox="0 0 784 1232" fill="none" xmlns="http://www.w3.org/2000/svg">
<path d="M784 0H0V1232H784V0Z" fill="#4AAF57"/>
<path opacity="0.8" fill-rule="evenodd" clip-rule="evenodd" d="M26.6807 53.6543H757.375V1176.35H26.6807V53.6543ZM36.9424 84.6004V609.871H290.082C292.755 555.883 337.375 512.931 392.027 512.931C446.679 512.931 491.298 555.883 493.972 609.871H747.113V84.6004C742.043 83.5927 737.342 81.1051 733.633 77.3963C729.924 73.6875 727.436 68.9859 726.429 63.9161H610.746V238.727H471.513C462.224 250.257 450.53 259.637 437.237 266.204C423.178 273.149 407.709 276.762 392.028 276.762C376.347 276.762 360.878 273.149 346.819 266.204C333.525 259.637 321.832 250.257 312.543 238.727H173.31V63.9161H57.6268C56.6191 68.9859 54.1314 73.6875 50.4227 77.3963C46.7139 81.1051 42.0122 83.5927 36.9424 84.6004ZM36.9424 74.0017C39.2653 73.2184 41.4004 71.9062 43.1665 70.1401C44.9326 68.374 46.2448 66.239 47.0281 63.9161H36.9424V74.0017ZM737.027 63.9161C737.811 66.239 739.123 68.374 740.889 70.1401C742.655 71.9062 744.79 73.2184 747.113 74.0017V63.9161H737.027ZM326.238 238.727H457.818C450.56 246.184 442.069 252.372 432.692 257.004C420.047 263.251 406.132 266.5 392.028 266.5C377.924 266.5 364.009 263.251 351.364 257.004C341.987 252.372 333.496 246.184 326.238 238.727ZM183.572 63.9161V228.465H600.484V63.9161H494.206V122.187H289.852V63.9161H183.572ZM300.113 63.9161H483.944V111.925H300.113V63.9161ZM483.696 609.871C481.033 561.553 441.01 523.193 392.027 523.193C343.044 523.193 303.02 561.553 300.358 609.871H385.961C387.418 608.148 389.596 607.055 392.029 607.055C394.462 607.055 396.64 608.148 398.097 609.871H483.696ZM300.358 620.133H385.962C387.42 621.854 389.597 622.947 392.029 622.947C394.461 622.947 396.638 621.854 398.096 620.133H483.696C481.034 668.451 441.01 706.812 392.027 706.812C343.043 706.812 303.019 668.451 300.358 620.133ZM290.082 620.133C292.755 674.122 337.375 717.074 392.027 717.074C446.679 717.074 491.299 674.122 493.972 620.133H747.113V1145.4C742.043 1146.41 737.342 1148.9 733.633 1152.61C729.924 1156.32 727.436 1161.02 726.429 1166.09H610.746V991.277H471.514C462.225 979.746 450.531 970.367 437.238 963.8C423.179 956.854 407.709 953.242 392.029 953.242C376.348 953.242 360.878 956.854 346.82 963.8C333.526 970.367 321.833 979.746 312.544 991.277H173.31V1166.09H57.6268C56.6191 1161.02 54.1315 1156.32 50.4227 1152.61C46.7139 1148.9 42.0122 1146.41 36.9424 1145.4V620.133H290.082ZM36.9424 1156V1166.09H47.0281C46.2448 1163.76 44.9326 1161.63 43.1665 1159.86C41.4004 1158.1 39.2653 1156.78 36.9424 1156ZM737.027 1166.09H747.113V1156C744.79 1156.78 742.655 1158.1 740.889 1159.86C739.123 1161.63 737.811 1163.76 737.027 1166.09ZM432.693 973C442.069 977.632 450.561 983.82 457.819 991.277H326.239C333.496 983.82 341.988 977.632 351.365 973C364.01 966.753 377.925 963.504 392.029 963.504C406.133 963.504 420.047 966.753 432.693 973ZM183.572 1166.09H289.85V1107.82H494.205V1166.09H600.485V1001.54H183.572V1166.09ZM483.943 1166.09H300.112V1118.08H483.943V1166.09ZM399.973 174.69C399.973 179.079 396.416 182.636 392.027 182.636C387.639 182.636 384.082 179.079 384.082 174.69C384.082 170.302 387.639 166.745 392.027 166.745C396.416 166.745 399.973 170.302 399.973 174.69ZM384.083 1055.31C384.083 1050.92 387.641 1047.37 392.029 1047.37C396.418 1047.37 399.975 1050.92 399.975 1055.31C399.975 1059.7 396.418 1063.26 392.029 1063.26C387.641 1063.26 384.083 1059.7 384.083 1055.31Z" fill="white"/>
</svg>
