<svg width="19" height="15" viewBox="0 0 19 15" fill="none" xmlns="http://www.w3.org/2000/svg">
<path fill-rule="evenodd" clip-rule="evenodd" d="M14.9056 7.12205C14.599 7.12205 14.3315 6.89621 14.2873 6.58371C14.2398 6.24121 14.4773 5.92538 14.8198 5.87788C15.6865 5.75621 16.3406 5.00455 16.3423 4.12788C16.3423 3.25871 15.719 2.52371 14.8598 2.38288C14.5198 2.32705 14.289 2.00538 14.3448 1.66455C14.4015 1.32371 14.7206 1.09538 15.0631 1.14955C16.5281 1.39038 17.5923 2.64371 17.5923 4.12955C17.589 5.62538 16.4715 6.90871 14.9923 7.11621C14.9631 7.12038 14.934 7.12205 14.9056 7.12205Z" fill="white"/>
<mask id="mask0_36_4535" style="mask-type:luminance" maskUnits="userSpaceOnUse" x="15" y="8" width="4" height="5">
<path fill-rule="evenodd" clip-rule="evenodd" d="M15.8164 8.66797H18.9781V12.4426H15.8164V8.66797Z" fill="white"/>
</mask>
<g mask="url(#mask0_36_4535)">
<path fill-rule="evenodd" clip-rule="evenodd" d="M17.3858 12.4426C17.1341 12.4426 16.8966 12.2893 16.8016 12.0401C16.6783 11.7176 16.8408 11.3559 17.1633 11.2334C17.7283 11.0184 17.7283 10.7809 17.7283 10.6668C17.7283 10.3018 17.2641 10.0468 16.3491 9.91011C16.0083 9.85844 15.7725 9.54094 15.8233 9.19844C15.8741 8.85678 16.1908 8.62928 16.535 8.67344C18.5541 8.97594 18.9783 9.92428 18.9783 10.6668C18.9783 11.1201 18.8 11.9476 17.6083 12.4018C17.535 12.4293 17.46 12.4426 17.3858 12.4426Z" fill="white"/>
</g>
<path fill-rule="evenodd" clip-rule="evenodd" d="M9.90529 10.2615C7.92529 10.2615 5.56445 10.5048 5.56445 11.6631C5.56445 12.8306 7.92529 13.0756 9.90529 13.0756C11.8853 13.0756 14.2453 12.8331 14.2453 11.6773C14.2453 10.5073 11.8853 10.2615 9.90529 10.2615ZM9.90529 14.3256C8.52279 14.3256 4.31445 14.3256 4.31445 11.6631C4.31445 9.01147 8.52279 9.01147 9.90529 9.01147C11.2878 9.01147 15.4953 9.01147 15.4953 11.6773C15.4953 14.3256 11.4345 14.3256 9.90529 14.3256Z" fill="white"/>
<path fill-rule="evenodd" clip-rule="evenodd" d="M9.90631 1.58325C8.49631 1.58325 7.34964 2.73075 7.34964 4.14075C7.34714 4.82409 7.60881 5.46325 8.08798 5.94575C8.56714 6.42825 9.20548 6.69575 9.88548 6.69825L9.90631 7.32325V6.69825C11.3163 6.69825 12.4638 5.55159 12.4638 4.14075C12.4638 2.73075 11.3163 1.58325 9.90631 1.58325ZM9.90631 7.94825H9.88381C8.86714 7.94492 7.91464 7.54659 7.20131 6.82659C6.48631 6.10742 6.09548 5.15242 6.09964 4.13825C6.09964 2.04159 7.80714 0.333252 9.90631 0.333252C12.0063 0.333252 13.7138 2.04159 13.7138 4.14075C13.7138 6.23992 12.0063 7.94825 9.90631 7.94825Z" fill="white"/>
<path fill-rule="evenodd" clip-rule="evenodd" d="M4.90458 7.12196C4.87625 7.12196 4.84708 7.12029 4.81792 7.11613C3.33875 6.90863 2.22208 5.62529 2.21875 4.13113C2.21875 2.64363 3.28292 1.39029 4.74792 1.14946C5.09875 1.09446 5.40958 1.32529 5.46625 1.66446C5.52208 2.00529 5.29125 2.32696 4.95125 2.38279C4.09208 2.52363 3.46875 3.25863 3.46875 4.12946C3.47042 5.00446 4.12458 5.75696 4.99042 5.87779C5.33292 5.92529 5.57042 6.24113 5.52292 6.58363C5.47875 6.89613 5.21125 7.12196 4.90458 7.12196Z" fill="white"/>
<path fill-rule="evenodd" clip-rule="evenodd" d="M2.42732 12.4427C2.35315 12.4427 2.27815 12.4293 2.20482 12.4018C1.01232 11.9468 0.833984 11.1193 0.833984 10.6668C0.833984 9.92518 1.25815 8.97601 3.27815 8.67351C3.62232 8.63018 3.93732 8.85685 3.98898 9.19851C4.03982 9.54101 3.80398 9.85851 3.46315 9.91018C2.54815 10.0468 2.08398 10.3018 2.08398 10.6668C2.08398 10.781 2.08398 11.0177 2.64982 11.2335C2.97232 11.356 3.13482 11.7177 3.01148 12.0402C2.91648 12.2893 2.67898 12.4427 2.42732 12.4427Z" fill="white"/>
</svg>
